<mxfile host="app.diagrams.net" modified="2024-07-24T04:27:00.752Z" agent="Mozilla/5.0 (Macintosh; Intel Mac OS X 10_15_7) AppleWebKit/537.36 (KHTML, like Gecko) Chrome/126.0.0.0 Safari/537.36" etag="rYuYmSUgEJ3apoICf-UB" version="24.5.4" type="device" pages="4">
  <diagram name="Page-1" id="Hevl-AMzsBjUc1YduDZN">
    <mxGraphModel dx="668" dy="402" grid="1" gridSize="10" guides="1" tooltips="1" connect="1" arrows="1" fold="1" page="1" pageScale="1" pageWidth="827" pageHeight="1169" math="0" shadow="0">
      <root>
        <mxCell id="0" />
        <mxCell id="1" parent="0" />
        <mxCell id="ePhVuoGyEKzJjKFXRUKT-3" value="" style="edgeStyle=orthogonalEdgeStyle;rounded=0;orthogonalLoop=1;jettySize=auto;html=1;" edge="1" parent="1" source="ePhVuoGyEKzJjKFXRUKT-1" target="ePhVuoGyEKzJjKFXRUKT-2">
          <mxGeometry relative="1" as="geometry" />
        </mxCell>
        <mxCell id="ePhVuoGyEKzJjKFXRUKT-1" value="App" style="rounded=0;whiteSpace=wrap;html=1;" vertex="1" parent="1">
          <mxGeometry x="354" y="120" width="120" height="60" as="geometry" />
        </mxCell>
        <mxCell id="ePhVuoGyEKzJjKFXRUKT-5" value="" style="edgeStyle=orthogonalEdgeStyle;rounded=0;orthogonalLoop=1;jettySize=auto;html=1;" edge="1" parent="1" source="ePhVuoGyEKzJjKFXRUKT-2" target="ePhVuoGyEKzJjKFXRUKT-4">
          <mxGeometry relative="1" as="geometry" />
        </mxCell>
        <mxCell id="ePhVuoGyEKzJjKFXRUKT-9" style="edgeStyle=orthogonalEdgeStyle;rounded=0;orthogonalLoop=1;jettySize=auto;html=1;exitX=0.5;exitY=1;exitDx=0;exitDy=0;" edge="1" parent="1" source="ePhVuoGyEKzJjKFXRUKT-2" target="ePhVuoGyEKzJjKFXRUKT-8">
          <mxGeometry relative="1" as="geometry" />
        </mxCell>
        <mxCell id="ePhVuoGyEKzJjKFXRUKT-2" value="Todos" style="whiteSpace=wrap;html=1;rounded=0;" vertex="1" parent="1">
          <mxGeometry x="354" y="220" width="120" height="60" as="geometry" />
        </mxCell>
        <mxCell id="ePhVuoGyEKzJjKFXRUKT-4" value="TodoItem" style="whiteSpace=wrap;html=1;rounded=0;" vertex="1" parent="1">
          <mxGeometry x="354" y="330" width="120" height="60" as="geometry" />
        </mxCell>
        <mxCell id="ePhVuoGyEKzJjKFXRUKT-6" value="todoCollection = []" style="text;html=1;align=center;verticalAlign=middle;resizable=0;points=[];autosize=1;strokeColor=none;fillColor=none;" vertex="1" parent="1">
          <mxGeometry x="474" y="235" width="120" height="30" as="geometry" />
        </mxCell>
        <mxCell id="ePhVuoGyEKzJjKFXRUKT-7" value="Props" style="text;html=1;align=center;verticalAlign=middle;resizable=0;points=[];autosize=1;strokeColor=none;fillColor=none;" vertex="1" parent="1">
          <mxGeometry x="415" y="288" width="50" height="30" as="geometry" />
        </mxCell>
        <mxCell id="ePhVuoGyEKzJjKFXRUKT-8" value="AddTodo" style="rounded=0;whiteSpace=wrap;html=1;" vertex="1" parent="1">
          <mxGeometry x="190" y="330" width="120" height="60" as="geometry" />
        </mxCell>
        <mxCell id="ePhVuoGyEKzJjKFXRUKT-11" value="Form Input =&amp;gt; Label&lt;div&gt;Button&lt;/div&gt;" style="text;html=1;align=center;verticalAlign=middle;resizable=0;points=[];autosize=1;strokeColor=none;fillColor=none;" vertex="1" parent="1">
          <mxGeometry x="180" y="390" width="130" height="40" as="geometry" />
        </mxCell>
        <mxCell id="IcfJ62NrXJ0ByjA_jDQI-1" value="Lifting-up the State" style="text;html=1;align=center;verticalAlign=middle;resizable=0;points=[];autosize=1;strokeColor=#82b366;fillColor=#d5e8d4;" vertex="1" parent="1">
          <mxGeometry x="100" y="150" width="120" height="30" as="geometry" />
        </mxCell>
        <mxCell id="IcfJ62NrXJ0ByjA_jDQI-2" style="edgeStyle=orthogonalEdgeStyle;rounded=0;orthogonalLoop=1;jettySize=auto;html=1;exitX=0;exitY=0.5;exitDx=0;exitDy=0;entryX=0.194;entryY=-0.033;entryDx=0;entryDy=0;entryPerimeter=0;" edge="1" parent="1" source="ePhVuoGyEKzJjKFXRUKT-2" target="ePhVuoGyEKzJjKFXRUKT-8">
          <mxGeometry relative="1" as="geometry" />
        </mxCell>
        <mxCell id="IcfJ62NrXJ0ByjA_jDQI-3" value="Functional Props" style="text;html=1;align=center;verticalAlign=middle;resizable=0;points=[];autosize=1;strokeColor=none;fillColor=none;" vertex="1" parent="1">
          <mxGeometry x="210" y="220" width="110" height="30" as="geometry" />
        </mxCell>
        <mxCell id="IcfJ62NrXJ0ByjA_jDQI-4" value="addNewTodo(label)" style="text;html=1;align=center;verticalAlign=middle;resizable=0;points=[];autosize=1;strokeColor=none;fillColor=none;" vertex="1" parent="1">
          <mxGeometry x="200" y="198" width="130" height="30" as="geometry" />
        </mxCell>
      </root>
    </mxGraphModel>
  </diagram>
  <diagram id="eZqiI762y1Jxm2rBwzAH" name="Page-2">
    <mxGraphModel dx="716" dy="431" grid="1" gridSize="10" guides="1" tooltips="1" connect="1" arrows="1" fold="1" page="1" pageScale="1" pageWidth="827" pageHeight="1169" math="0" shadow="0">
      <root>
        <mxCell id="0" />
        <mxCell id="1" parent="0" />
        <mxCell id="L5GpwO2qSB0uAisdxpCJ-3" style="edgeStyle=orthogonalEdgeStyle;rounded=0;orthogonalLoop=1;jettySize=auto;html=1;exitX=0.5;exitY=0;exitDx=0;exitDy=0;entryX=0.5;entryY=0;entryDx=0;entryDy=0;" edge="1" parent="1" source="L5GpwO2qSB0uAisdxpCJ-1" target="L5GpwO2qSB0uAisdxpCJ-2">
          <mxGeometry relative="1" as="geometry">
            <Array as="points">
              <mxPoint x="210" y="100" />
              <mxPoint x="570" y="100" />
            </Array>
          </mxGeometry>
        </mxCell>
        <mxCell id="L5GpwO2qSB0uAisdxpCJ-1" value="Code&lt;div&gt;&amp;lt;Label&amp;gt;&lt;/div&gt;" style="rounded=0;whiteSpace=wrap;html=1;" vertex="1" parent="1">
          <mxGeometry x="150" y="160" width="120" height="60" as="geometry" />
        </mxCell>
        <mxCell id="L5GpwO2qSB0uAisdxpCJ-4" style="edgeStyle=orthogonalEdgeStyle;rounded=0;orthogonalLoop=1;jettySize=auto;html=1;exitX=0.5;exitY=1;exitDx=0;exitDy=0;entryX=0.5;entryY=1;entryDx=0;entryDy=0;" edge="1" parent="1" source="L5GpwO2qSB0uAisdxpCJ-2" target="L5GpwO2qSB0uAisdxpCJ-1">
          <mxGeometry relative="1" as="geometry">
            <Array as="points">
              <mxPoint x="570" y="270" />
              <mxPoint x="210" y="270" />
            </Array>
          </mxGeometry>
        </mxCell>
        <mxCell id="L5GpwO2qSB0uAisdxpCJ-2" value="Template / UI / View" style="rounded=0;whiteSpace=wrap;html=1;" vertex="1" parent="1">
          <mxGeometry x="510" y="160" width="120" height="60" as="geometry" />
        </mxCell>
        <mxCell id="L5GpwO2qSB0uAisdxpCJ-5" value="2 way data binding" style="text;html=1;align=center;verticalAlign=middle;resizable=0;points=[];autosize=1;strokeColor=none;fillColor=none;" vertex="1" parent="1">
          <mxGeometry x="310" y="300" width="120" height="30" as="geometry" />
        </mxCell>
      </root>
    </mxGraphModel>
  </diagram>
  <diagram id="MpJeVCxnpSVYbhoWsKwH" name="Page-3">
    <mxGraphModel dx="871" dy="524" grid="1" gridSize="10" guides="1" tooltips="1" connect="1" arrows="1" fold="1" page="1" pageScale="1" pageWidth="827" pageHeight="1169" math="0" shadow="0">
      <root>
        <mxCell id="0" />
        <mxCell id="1" parent="0" />
        <mxCell id="IXq8Pbd0kpnV8R-336v6-3" value="" style="edgeStyle=orthogonalEdgeStyle;rounded=0;orthogonalLoop=1;jettySize=auto;html=1;" edge="1" parent="1" source="IXq8Pbd0kpnV8R-336v6-1" target="IXq8Pbd0kpnV8R-336v6-2">
          <mxGeometry relative="1" as="geometry" />
        </mxCell>
        <mxCell id="IXq8Pbd0kpnV8R-336v6-5" style="edgeStyle=orthogonalEdgeStyle;rounded=0;orthogonalLoop=1;jettySize=auto;html=1;exitX=0.5;exitY=1;exitDx=0;exitDy=0;" edge="1" parent="1" source="IXq8Pbd0kpnV8R-336v6-1" target="IXq8Pbd0kpnV8R-336v6-4">
          <mxGeometry relative="1" as="geometry" />
        </mxCell>
        <mxCell id="IXq8Pbd0kpnV8R-336v6-1" value="App" style="rounded=0;whiteSpace=wrap;html=1;" vertex="1" parent="1">
          <mxGeometry x="330" y="230" width="120" height="60" as="geometry" />
        </mxCell>
        <mxCell id="IXq8Pbd0kpnV8R-336v6-7" value="" style="edgeStyle=orthogonalEdgeStyle;rounded=0;orthogonalLoop=1;jettySize=auto;html=1;" edge="1" parent="1" source="IXq8Pbd0kpnV8R-336v6-2" target="IXq8Pbd0kpnV8R-336v6-6">
          <mxGeometry relative="1" as="geometry" />
        </mxCell>
        <mxCell id="IXq8Pbd0kpnV8R-336v6-9" style="edgeStyle=orthogonalEdgeStyle;rounded=0;orthogonalLoop=1;jettySize=auto;html=1;exitX=0.5;exitY=1;exitDx=0;exitDy=0;entryX=0.5;entryY=0;entryDx=0;entryDy=0;" edge="1" parent="1" source="IXq8Pbd0kpnV8R-336v6-2" target="IXq8Pbd0kpnV8R-336v6-8">
          <mxGeometry relative="1" as="geometry" />
        </mxCell>
        <mxCell id="IXq8Pbd0kpnV8R-336v6-2" value="Comp A" style="rounded=0;whiteSpace=wrap;html=1;" vertex="1" parent="1">
          <mxGeometry x="270" y="370" width="120" height="60" as="geometry" />
        </mxCell>
        <mxCell id="IXq8Pbd0kpnV8R-336v6-12" style="edgeStyle=orthogonalEdgeStyle;rounded=0;orthogonalLoop=1;jettySize=auto;html=1;exitX=0.5;exitY=1;exitDx=0;exitDy=0;entryX=0.5;entryY=0;entryDx=0;entryDy=0;" edge="1" parent="1" source="IXq8Pbd0kpnV8R-336v6-4" target="IXq8Pbd0kpnV8R-336v6-10">
          <mxGeometry relative="1" as="geometry" />
        </mxCell>
        <mxCell id="IXq8Pbd0kpnV8R-336v6-13" style="edgeStyle=orthogonalEdgeStyle;rounded=0;orthogonalLoop=1;jettySize=auto;html=1;exitX=0.5;exitY=1;exitDx=0;exitDy=0;" edge="1" parent="1" source="IXq8Pbd0kpnV8R-336v6-4" target="IXq8Pbd0kpnV8R-336v6-11">
          <mxGeometry relative="1" as="geometry" />
        </mxCell>
        <mxCell id="IXq8Pbd0kpnV8R-336v6-4" value="Comp B" style="rounded=0;whiteSpace=wrap;html=1;" vertex="1" parent="1">
          <mxGeometry x="420" y="370" width="120" height="60" as="geometry" />
        </mxCell>
        <mxCell id="IXq8Pbd0kpnV8R-336v6-16" style="edgeStyle=orthogonalEdgeStyle;rounded=0;orthogonalLoop=1;jettySize=auto;html=1;exitX=0.5;exitY=1;exitDx=0;exitDy=0;" edge="1" parent="1" source="IXq8Pbd0kpnV8R-336v6-6" target="IXq8Pbd0kpnV8R-336v6-14">
          <mxGeometry relative="1" as="geometry" />
        </mxCell>
        <mxCell id="IXq8Pbd0kpnV8R-336v6-17" style="edgeStyle=orthogonalEdgeStyle;rounded=0;orthogonalLoop=1;jettySize=auto;html=1;exitX=0.5;exitY=1;exitDx=0;exitDy=0;entryX=0.5;entryY=0;entryDx=0;entryDy=0;" edge="1" parent="1" source="IXq8Pbd0kpnV8R-336v6-6" target="IXq8Pbd0kpnV8R-336v6-15">
          <mxGeometry relative="1" as="geometry" />
        </mxCell>
        <mxCell id="IXq8Pbd0kpnV8R-336v6-6" value="Comp A1" style="rounded=0;whiteSpace=wrap;html=1;" vertex="1" parent="1">
          <mxGeometry x="210" y="470" width="120" height="60" as="geometry" />
        </mxCell>
        <mxCell id="IXq8Pbd0kpnV8R-336v6-8" value="Comp A2" style="rounded=0;whiteSpace=wrap;html=1;" vertex="1" parent="1">
          <mxGeometry x="354" y="470" width="120" height="60" as="geometry" />
        </mxCell>
        <mxCell id="IXq8Pbd0kpnV8R-336v6-10" value="Comp B1" style="rounded=0;whiteSpace=wrap;html=1;" vertex="1" parent="1">
          <mxGeometry x="510" y="470" width="120" height="60" as="geometry" />
        </mxCell>
        <mxCell id="IXq8Pbd0kpnV8R-336v6-11" value="Comp B2" style="rounded=0;whiteSpace=wrap;html=1;" vertex="1" parent="1">
          <mxGeometry x="654" y="470" width="120" height="60" as="geometry" />
        </mxCell>
        <mxCell id="IXq8Pbd0kpnV8R-336v6-14" value="Comp A11" style="rounded=0;whiteSpace=wrap;html=1;fillColor=#d5e8d4;strokeColor=#82b366;" vertex="1" parent="1">
          <mxGeometry x="110" y="590" width="120" height="60" as="geometry" />
        </mxCell>
        <mxCell id="IXq8Pbd0kpnV8R-336v6-15" value="Comp A112" style="rounded=0;whiteSpace=wrap;html=1;" vertex="1" parent="1">
          <mxGeometry x="254" y="590" width="120" height="60" as="geometry" />
        </mxCell>
        <mxCell id="IXq8Pbd0kpnV8R-336v6-18" value="App Components Tree Structure" style="text;strokeColor=none;fillColor=none;html=1;fontSize=24;fontStyle=1;verticalAlign=middle;align=center;" vertex="1" parent="1">
          <mxGeometry x="364" y="150" width="100" height="40" as="geometry" />
        </mxCell>
        <mxCell id="IXq8Pbd0kpnV8R-336v6-19" value="Model" style="text;html=1;align=center;verticalAlign=middle;resizable=0;points=[];autosize=1;strokeColor=none;fillColor=none;" vertex="1" parent="1">
          <mxGeometry x="135" y="333" width="60" height="30" as="geometry" />
        </mxCell>
        <mxCell id="IXq8Pbd0kpnV8R-336v6-24" style="edgeStyle=orthogonalEdgeStyle;rounded=0;orthogonalLoop=1;jettySize=auto;html=1;exitX=0.5;exitY=0;exitDx=0;exitDy=0;entryX=0;entryY=0.5;entryDx=0;entryDy=0;" edge="1" parent="1" source="IXq8Pbd0kpnV8R-336v6-23" target="IXq8Pbd0kpnV8R-336v6-1">
          <mxGeometry relative="1" as="geometry" />
        </mxCell>
        <mxCell id="IXq8Pbd0kpnV8R-336v6-26" style="edgeStyle=orthogonalEdgeStyle;rounded=0;orthogonalLoop=1;jettySize=auto;html=1;exitX=0.5;exitY=1;exitDx=0;exitDy=0;entryX=0;entryY=0.5;entryDx=0;entryDy=0;" edge="1" parent="1" source="IXq8Pbd0kpnV8R-336v6-23" target="IXq8Pbd0kpnV8R-336v6-14">
          <mxGeometry relative="1" as="geometry" />
        </mxCell>
        <mxCell id="IXq8Pbd0kpnV8R-336v6-23" value="Context API" style="ellipse;whiteSpace=wrap;html=1;" vertex="1" parent="1">
          <mxGeometry x="20" y="308" width="120" height="80" as="geometry" />
        </mxCell>
        <mxCell id="IXq8Pbd0kpnV8R-336v6-25" value="Provider" style="text;html=1;align=center;verticalAlign=middle;resizable=0;points=[];autosize=1;strokeColor=none;fillColor=none;fontStyle=1" vertex="1" parent="1">
          <mxGeometry x="175" y="230" width="70" height="30" as="geometry" />
        </mxCell>
        <mxCell id="IXq8Pbd0kpnV8R-336v6-27" value="Consumer" style="text;html=1;align=center;verticalAlign=middle;resizable=0;points=[];autosize=1;strokeColor=none;fillColor=none;" vertex="1" parent="1">
          <mxGeometry x="75" y="458" width="80" height="30" as="geometry" />
        </mxCell>
        <mxCell id="IXq8Pbd0kpnV8R-336v6-28" value="useContext()" style="text;html=1;align=center;verticalAlign=middle;resizable=0;points=[];autosize=1;strokeColor=none;fillColor=none;" vertex="1" parent="1">
          <mxGeometry x="125" y="650" width="90" height="30" as="geometry" />
        </mxCell>
      </root>
    </mxGraphModel>
  </diagram>
  <diagram id="utc_2dGzlLNReiK4hTM9" name="Page-4">
    <mxGraphModel dx="668" dy="402" grid="1" gridSize="10" guides="1" tooltips="1" connect="1" arrows="1" fold="1" page="1" pageScale="1" pageWidth="827" pageHeight="1169" math="0" shadow="0">
      <root>
        <mxCell id="0" />
        <mxCell id="1" parent="0" />
        <mxCell id="rDR16IK84TPLXO5MGv5C-1" value="Redux Data Flow" style="text;strokeColor=none;fillColor=none;html=1;fontSize=24;fontStyle=1;verticalAlign=middle;align=center;" vertex="1" parent="1">
          <mxGeometry x="364" y="50" width="100" height="40" as="geometry" />
        </mxCell>
        <mxCell id="rDR16IK84TPLXO5MGv5C-4" value="" style="edgeStyle=orthogonalEdgeStyle;rounded=0;orthogonalLoop=1;jettySize=auto;html=1;" edge="1" parent="1" source="rDR16IK84TPLXO5MGv5C-2" target="rDR16IK84TPLXO5MGv5C-3">
          <mxGeometry relative="1" as="geometry" />
        </mxCell>
        <mxCell id="rDR16IK84TPLXO5MGv5C-2" value="View (React App)" style="rounded=0;whiteSpace=wrap;html=1;" vertex="1" parent="1">
          <mxGeometry x="155" y="150" width="120" height="60" as="geometry" />
        </mxCell>
        <mxCell id="rDR16IK84TPLXO5MGv5C-7" value="" style="edgeStyle=orthogonalEdgeStyle;rounded=0;orthogonalLoop=1;jettySize=auto;html=1;" edge="1" parent="1" source="rDR16IK84TPLXO5MGv5C-3" target="rDR16IK84TPLXO5MGv5C-6">
          <mxGeometry relative="1" as="geometry" />
        </mxCell>
        <mxCell id="rDR16IK84TPLXO5MGv5C-3" value="Action" style="whiteSpace=wrap;html=1;rounded=0;" vertex="1" parent="1">
          <mxGeometry x="155" y="290" width="120" height="60" as="geometry" />
        </mxCell>
        <mxCell id="rDR16IK84TPLXO5MGv5C-5" value="dispatch()" style="text;html=1;align=center;verticalAlign=middle;resizable=0;points=[];autosize=1;strokeColor=none;fillColor=none;" vertex="1" parent="1">
          <mxGeometry x="215" y="228" width="80" height="30" as="geometry" />
        </mxCell>
        <mxCell id="rDR16IK84TPLXO5MGv5C-11" value="" style="edgeStyle=orthogonalEdgeStyle;rounded=0;orthogonalLoop=1;jettySize=auto;html=1;" edge="1" parent="1" source="rDR16IK84TPLXO5MGv5C-6" target="rDR16IK84TPLXO5MGv5C-10">
          <mxGeometry relative="1" as="geometry" />
        </mxCell>
        <mxCell id="rDR16IK84TPLXO5MGv5C-6" value="Reducer" style="whiteSpace=wrap;html=1;rounded=0;" vertex="1" parent="1">
          <mxGeometry x="499" y="290" width="120" height="60" as="geometry" />
        </mxCell>
        <mxCell id="rDR16IK84TPLXO5MGv5C-8" value="{ type : &quot;&quot;, payload?: &quot;&quot;}" style="text;html=1;align=center;verticalAlign=middle;resizable=0;points=[];autosize=1;strokeColor=none;fillColor=none;" vertex="1" parent="1">
          <mxGeometry x="140" y="360" width="150" height="30" as="geometry" />
        </mxCell>
        <mxCell id="rDR16IK84TPLXO5MGv5C-9" value="(prevState, action) =&amp;gt; newState" style="text;html=1;align=center;verticalAlign=middle;resizable=0;points=[];autosize=1;strokeColor=none;fillColor=none;" vertex="1" parent="1">
          <mxGeometry x="450" y="358" width="190" height="30" as="geometry" />
        </mxCell>
        <mxCell id="rDR16IK84TPLXO5MGv5C-12" style="edgeStyle=orthogonalEdgeStyle;rounded=0;orthogonalLoop=1;jettySize=auto;html=1;exitX=0;exitY=0.5;exitDx=0;exitDy=0;entryX=1;entryY=0.5;entryDx=0;entryDy=0;" edge="1" parent="1" source="rDR16IK84TPLXO5MGv5C-10" target="rDR16IK84TPLXO5MGv5C-2">
          <mxGeometry relative="1" as="geometry" />
        </mxCell>
        <mxCell id="rDR16IK84TPLXO5MGv5C-10" value="Store&lt;div&gt;{ state1, state2, state3....}&lt;/div&gt;" style="whiteSpace=wrap;html=1;rounded=0;" vertex="1" parent="1">
          <mxGeometry x="499" y="150" width="120" height="60" as="geometry" />
        </mxCell>
        <mxCell id="rDR16IK84TPLXO5MGv5C-13" value="subscribe()" style="text;html=1;align=center;verticalAlign=middle;resizable=0;points=[];autosize=1;strokeColor=none;fillColor=none;" vertex="1" parent="1">
          <mxGeometry x="325" y="138" width="80" height="30" as="geometry" />
        </mxCell>
      </root>
    </mxGraphModel>
  </diagram>
</mxfile>
